<?xml version="1.0" standalone="no"?>
<!DOCTYPE svg PUBLIC "-//W3C//DTD SVG 20010904//EN"
 "http://www.w3.org/TR/2001/REC-SVG-20010904/DTD/svg10.dtd">
<svg version="1.0" xmlns="http://www.w3.org/2000/svg"
 width="835.000000pt" height="835.000000pt" viewBox="0 0 835.000000 835.000000"
 preserveAspectRatio="xMidYMid meet">
<metadata>
Created by potrace 1.14, written by Peter Selinger 2001-2017
</metadata>
<g transform="translate(0.000000,835.000000) scale(0.100000,-0.100000)"
fill="#000000" stroke="none">
<path d="M3899 8335 c-2 -2 -40 -6 -84 -9 -84 -7 -144 -14 -185 -21 -14 -3
-47 -7 -75 -11 -130 -14 -415 -79 -600 -136 -213 -65 -456 -164 -660 -268
-156 -80 -212 -110 -229 -123 -6 -4 -66 -42 -134 -85 -180 -114 -441 -312
-553 -422 -14 -14 -55 -52 -90 -86 -82 -78 -199 -201 -269 -283 -30 -35 -59
-69 -65 -75 -8 -10 -58 -73 -87 -111 -4 -5 -18 -23 -31 -40 -158 -201 -374
-574 -481 -830 -26 -60 -51 -119 -56 -130 -30 -63 -126 -361 -160 -495 -57
-227 -97 -460 -117 -680 -10 -109 -10 -633 0 -725 27 -246 61 -453 104 -620 8
-33 17 -67 18 -75 3 -12 43 -150 59 -205 21 -71 116 -318 166 -431 59 -132
166 -339 241 -461 50 -81 199 -306 209 -313 3 -3 25 -30 47 -61 23 -31 47 -62
55 -70 7 -8 31 -37 53 -64 109 -138 395 -422 545 -543 63 -51 121 -97 129
-104 76 -63 293 -209 408 -275 36 -21 79 -46 96 -56 102 -61 371 -188 517
-244 74 -28 257 -92 280 -98 8 -2 53 -14 100 -28 90 -26 324 -79 425 -97 62
-10 99 -15 175 -25 25 -3 54 -7 65 -9 132 -26 782 -27 914 -1 10 2 42 6 72 10
56 6 279 42 321 51 13 3 34 7 47 10 90 19 311 80 427 119 397 133 792 335
1119 573 103 74 118 86 137 104 10 10 22 18 27 18 5 0 11 3 13 8 2 4 30 29 63
57 240 199 516 495 698 750 48 66 90 125 95 130 55 66 298 515 370 685 51 121
162 436 177 505 2 11 14 55 25 98 42 158 80 366 105 577 26 223 26 723 0 900
-2 14 -6 50 -10 80 -8 71 -39 258 -50 310 -3 14 -8 36 -11 50 -11 59 -76 294
-108 395 -167 525 -460 1039 -836 1470 -84 96 -346 351 -440 429 -52 43 -106
88 -120 100 -95 81 -374 265 -544 360 -229 128 -487 241 -735 322 -124 41
-412 116 -491 128 -19 3 -46 8 -60 11 -14 3 -38 8 -55 10 -16 2 -59 9 -95 14
-36 5 -90 13 -120 16 -30 3 -73 8 -95 11 -45 7 -651 15 -656 9z m596 -369 c17
-2 59 -7 95 -11 130 -12 149 -15 255 -35 28 -5 64 -12 80 -15 65 -11 84 -16
200 -45 119 -31 363 -109 461 -148 132 -53 339 -153 469 -227 126 -71 324
-201 410 -267 27 -22 66 -52 85 -66 131 -102 434 -393 520 -500 19 -24 43 -54
54 -65 65 -76 306 -414 306 -431 0 -3 61 -108 90 -156 20 -32 140 -280 165
-341 14 -35 30 -73 35 -84 15 -33 89 -246 104 -300 69 -250 98 -382 125 -579
25 -179 35 -320 35 -521 0 -148 -11 -392 -19 -404 -1 -4 -6 -37 -10 -74 -3
-37 -8 -76 -10 -85 -1 -9 -6 -39 -9 -66 -4 -27 -9 -52 -11 -56 -2 -3 -6 -24
-9 -46 -16 -106 -74 -327 -128 -489 -57 -170 -191 -480 -258 -595 -121 -207
-223 -369 -282 -445 -95 -122 -153 -194 -198 -246 -61 -71 -258 -270 -335
-339 -50 -45 -69 -61 -200 -165 -38 -30 -75 -59 -81 -64 -15 -12 -230 -156
-269 -180 -203 -125 -469 -252 -705 -336 -72 -26 -278 -89 -325 -100 -16 -4
-37 -9 -45 -11 -25 -6 -193 -43 -220 -48 -75 -13 -161 -26 -205 -31 -27 -3
-63 -7 -80 -10 -203 -28 -664 -24 -880 9 -22 3 -62 8 -89 11 -27 4 -72 11
-100 16 -28 6 -64 13 -81 15 -139 23 -525 136 -660 194 -11 5 -49 21 -85 36
-112 45 -382 182 -470 238 -313 199 -504 349 -726 571 -156 156 -247 260 -372
425 -194 256 -349 539 -507 925 -56 137 -153 485 -179 645 -2 14 -7 41 -10 60
-17 100 -17 101 -32 221 -13 117 -17 201 -18 419 0 129 3 265 7 303 4 37 10
97 13 135 3 37 7 74 9 82 3 8 9 47 15 85 37 260 127 580 241 856 50 121 180
381 245 489 226 373 528 727 834 976 19 16 37 31 40 34 30 31 410 300 424 300
3 0 40 21 83 46 142 85 486 246 553 259 3 1 21 8 40 17 91 40 424 132 555 154
17 3 53 9 80 14 52 10 81 15 155 25 77 11 102 13 210 20 58 4 107 9 109 11 5
5 470 -4 506 -10z"/>
<path d="M2823 6319 c-64 -32 -95 -79 -99 -153 -2 -33 -4 -63 -5 -66 -1 -3 0
-9 1 -15 6 -30 4 -345 -3 -345 -5 0 -5 -5 -1 -11 4 -7 9 -516 11 -1133 7
-2377 8 -2457 26 -2499 37 -85 145 -129 231 -93 19 8 100 53 178 99 79 47 159
94 178 105 19 10 130 75 245 142 116 68 224 131 240 140 50 29 239 140 255
150 58 35 221 130 225 130 2 0 40 22 84 50 44 27 84 50 88 50 3 0 14 6 22 14
9 7 41 27 71 43 30 16 102 58 158 91 57 34 106 62 108 62 3 0 31 16 129 77 11
7 54 31 95 55 41 23 110 64 153 90 43 26 80 48 81 48 2 0 88 50 192 111 104
61 207 122 229 134 22 12 135 77 250 145 116 68 275 161 355 207 171 100 166
96 191 144 27 53 30 109 9 157 -24 53 -47 72 -164 140 -55 31 -108 62 -118 67
-9 6 -34 20 -55 31 -21 12 -54 30 -73 41 -49 28 -368 212 -405 233 -169 97
-1131 649 -1165 668 -25 14 -62 36 -82 49 -21 12 -40 23 -43 23 -3 0 -22 11
-43 23 -20 13 -57 35 -82 49 -25 14 -135 77 -245 140 -596 343 -894 514 -931
534 -22 12 -58 33 -80 46 -83 52 -144 60 -211 27z m522 -624 c298 -171 289
-166 353 -204 29 -17 54 -31 56 -31 2 0 53 -29 114 -64 61 -36 131 -76 154
-89 24 -13 59 -33 78 -44 37 -22 683 -393 735 -423 182 -104 519 -298 550
-317 22 -13 54 -30 70 -39 17 -8 44 -23 60 -34 17 -11 36 -23 44 -27 8 -3 85
-47 170 -97 86 -49 170 -97 186 -106 84 -44 86 -39 -36 -111 -61 -35 -132 -76
-157 -91 -26 -15 -69 -40 -96 -55 -27 -16 -56 -32 -65 -38 -9 -5 -72 -43 -141
-83 -155 -91 -152 -89 -225 -133 -33 -19 -67 -39 -75 -43 -8 -4 -36 -19 -61
-34 -25 -15 -135 -79 -243 -142 -108 -63 -209 -123 -224 -132 -15 -10 -34 -21
-42 -25 -14 -6 -246 -142 -280 -163 -8 -5 -44 -26 -80 -46 -36 -21 -96 -56
-135 -79 -58 -34 -176 -103 -362 -211 -80 -47 -301 -176 -323 -189 -14 -8 -79
-46 -144 -85 -66 -39 -121 -68 -124 -65 -3 3 -7 485 -9 1072 -2 588 -5 1339
-6 1671 -2 430 0 601 8 598 6 -2 119 -66 250 -141z"/>
</g>
</svg>
